<svg width="225" height="222" viewBox="0 0 225 222" fill="none" xmlns="http://www.w3.org/2000/svg">
<g id="Titik-titik">
<rect id="Rectangle 3 Copy 19" width="6.08109" height="6.06996" rx="1.34409" fill="white"/>
<rect id="Rectangle 3 Copy 18" x="24.3245" width="6.08109" height="6.06996" rx="1.34409" fill="white"/>
<rect id="Rectangle 3 Copy 17" x="48.6489" width="6.08109" height="6.06996" rx="1.34409" fill="white"/>
<rect id="Rectangle 3 Copy 16" x="72.973" width="6.08109" height="6.06996" rx="1.34409" fill="white"/>
<rect id="Rectangle 3 Copy 15" x="97.2974" width="6.08109" height="6.06996" rx="1.34409" fill="white"/>
<rect id="Rectangle 3 Copy 14" x="121.622" width="6.08109" height="6.06996" rx="1.34409" fill="white"/>
<rect id="Rectangle 3 Copy 13" x="145.946" width="6.0811" height="6.06996" rx="1.34409" fill="white"/>
<rect id="Rectangle 3 Copy 12" x="170.271" width="6.08109" height="6.06996" rx="1.34409" fill="white"/>
<rect id="Rectangle 3 Copy 11" x="194.595" width="6.0811" height="6.06996" rx="1.34409" fill="white"/>
<rect id="Rectangle 3 Copy 10" x="218.919" width="6.08109" height="6.06996" rx="1.34409" fill="white"/>
<rect id="Rectangle 3 Copy 29" y="24.2798" width="6.08109" height="6.06996" rx="1.34409" fill="white"/>
<rect id="Rectangle 3 Copy 28" x="24.3245" y="24.2798" width="6.08109" height="6.06996" rx="1.34409" fill="white"/>
<rect id="Rectangle 3 Copy 27" x="48.6489" y="24.2798" width="6.08109" height="6.06996" rx="1.34409" fill="white"/>
<rect id="Rectangle 3 Copy 26" x="72.973" y="24.2798" width="6.08109" height="6.06996" rx="1.34409" fill="white"/>
<rect id="Rectangle 3 Copy 25" x="97.2974" y="24.2798" width="6.08109" height="6.06996" rx="1.34409" fill="white"/>
<rect id="Rectangle 3 Copy 24" x="121.622" y="24.2798" width="6.08109" height="6.06996" rx="1.34409" fill="white"/>
<rect id="Rectangle 3 Copy 23" x="145.946" y="24.2798" width="6.0811" height="6.06996" rx="1.34409" fill="white"/>
<rect id="Rectangle 3 Copy 22" x="170.271" y="24.2798" width="6.08109" height="6.06996" rx="1.34409" fill="white"/>
<rect id="Rectangle 3 Copy 21" x="194.595" y="24.2798" width="6.0811" height="6.06996" rx="1.34409" fill="white"/>
<rect id="Rectangle 3 Copy 20" x="218.919" y="24.2798" width="6.08109" height="6.06996" rx="1.34409" fill="white"/>
<rect id="Rectangle 3 Copy 39" y="48.5597" width="6.08109" height="6.06996" rx="1.34409" fill="white"/>
<rect id="Rectangle 3 Copy 38" x="24.3245" y="48.5597" width="6.08109" height="6.06996" rx="1.34409" fill="white"/>
<rect id="Rectangle 3 Copy 37" x="48.6489" y="48.5597" width="6.08109" height="6.06996" rx="1.34409" fill="white"/>
<rect id="Rectangle 3 Copy 36" x="72.973" y="48.5597" width="6.08109" height="6.06996" rx="1.34409" fill="white"/>
<rect id="Rectangle 3 Copy 35" x="97.2974" y="48.5597" width="6.08109" height="6.06996" rx="1.34409" fill="white"/>
<rect id="Rectangle 3 Copy 34" x="121.622" y="48.5597" width="6.08109" height="6.06996" rx="1.34409" fill="white"/>
<rect id="Rectangle 3 Copy 33" x="145.946" y="48.5597" width="6.0811" height="6.06996" rx="1.34409" fill="white"/>
<rect id="Rectangle 3 Copy 32" x="170.271" y="48.5597" width="6.08109" height="6.06996" rx="1.34409" fill="white"/>
<rect id="Rectangle 3 Copy 31" x="194.595" y="48.5597" width="6.0811" height="6.06996" rx="1.34409" fill="white"/>
<rect id="Rectangle 3 Copy 30" x="218.919" y="48.5597" width="6.08109" height="6.06996" rx="1.34409" fill="white"/>
<rect id="Rectangle 3 Copy 49" y="72.8395" width="6.08109" height="6.06995" rx="1.34409" fill="white"/>
<rect id="Rectangle 3 Copy 48" x="24.3245" y="72.8395" width="6.08109" height="6.06995" rx="1.34409" fill="white"/>
<rect id="Rectangle 3 Copy 47" x="48.6489" y="72.8395" width="6.08109" height="6.06995" rx="1.34409" fill="white"/>
<rect id="Rectangle 3 Copy 46" x="72.973" y="72.8395" width="6.08109" height="6.06995" rx="1.34409" fill="white"/>
<rect id="Rectangle 3 Copy 45" x="97.2974" y="72.8395" width="6.08109" height="6.06995" rx="1.34409" fill="white"/>
<rect id="Rectangle 3 Copy 44" x="121.622" y="72.8395" width="6.08109" height="6.06995" rx="1.34409" fill="white"/>
<rect id="Rectangle 3 Copy 43" x="145.946" y="72.8395" width="6.0811" height="6.06995" rx="1.34409" fill="white"/>
<rect id="Rectangle 3 Copy 42" x="170.271" y="72.8395" width="6.08109" height="6.06995" rx="1.34409" fill="white"/>
<rect id="Rectangle 3 Copy 41" x="194.595" y="72.8395" width="6.0811" height="6.06995" rx="1.34409" fill="white"/>
<rect id="Rectangle 3 Copy 40" x="218.919" y="72.8395" width="6.08109" height="6.06995" rx="1.34409" fill="white"/>
<rect id="Rectangle 3 Copy 59" y="97.1193" width="6.08109" height="6.06996" rx="1.34409" fill="white"/>
<rect id="Rectangle 3 Copy 58" x="24.3245" y="97.1193" width="6.08109" height="6.06996" rx="1.34409" fill="white"/>
<rect id="Rectangle 3 Copy 57" x="48.6489" y="97.1193" width="6.08109" height="6.06996" rx="1.34409" fill="white"/>
<rect id="Rectangle 3 Copy 56" x="72.973" y="97.1193" width="6.08109" height="6.06996" rx="1.34409" fill="white"/>
<rect id="Rectangle 3 Copy 55" x="97.2974" y="97.1193" width="6.08109" height="6.06996" rx="1.34409" fill="white"/>
<rect id="Rectangle 3 Copy 54" x="121.622" y="97.1193" width="6.08109" height="6.06996" rx="1.34409" fill="white"/>
<rect id="Rectangle 3 Copy 53" x="145.946" y="97.1193" width="6.0811" height="6.06996" rx="1.34409" fill="white"/>
<rect id="Rectangle 3 Copy 52" x="170.271" y="97.1193" width="6.08109" height="6.06996" rx="1.34409" fill="white"/>
<rect id="Rectangle 3 Copy 51" x="194.595" y="97.1193" width="6.0811" height="6.06996" rx="1.34409" fill="white"/>
<rect id="Rectangle 3 Copy 50" x="218.919" y="97.1193" width="6.08109" height="6.06996" rx="1.34409" fill="white"/>
<rect id="Rectangle 3 Copy 69" y="121.399" width="6.08109" height="6.06996" rx="1.34409" fill="white"/>
<rect id="Rectangle 3 Copy 68" x="24.3245" y="121.399" width="6.08109" height="6.06996" rx="1.34409" fill="white"/>
<rect id="Rectangle 3 Copy 67" x="48.6489" y="121.399" width="6.08109" height="6.06996" rx="1.34409" fill="white"/>
<rect id="Rectangle 3 Copy 66" x="72.973" y="121.399" width="6.08109" height="6.06996" rx="1.34409" fill="white"/>
<rect id="Rectangle 3 Copy 65" x="97.2974" y="121.399" width="6.08109" height="6.06996" rx="1.34409" fill="white"/>
<rect id="Rectangle 3 Copy 64" x="121.622" y="121.399" width="6.08109" height="6.06996" rx="1.34409" fill="white"/>
<rect id="Rectangle 3 Copy 63" x="145.946" y="121.399" width="6.0811" height="6.06996" rx="1.34409" fill="white"/>
<rect id="Rectangle 3 Copy 62" x="170.271" y="121.399" width="6.08109" height="6.06996" rx="1.34409" fill="white"/>
<rect id="Rectangle 3 Copy 61" x="194.595" y="121.399" width="6.0811" height="6.06996" rx="1.34409" fill="white"/>
<rect id="Rectangle 3 Copy 60" x="218.919" y="121.399" width="6.08109" height="6.06996" rx="1.34409" fill="white"/>
<rect id="Rectangle 3 Copy 79" y="145.679" width="6.08109" height="6.06996" rx="1.34409" fill="white"/>
<rect id="Rectangle 3 Copy 80" y="169.096" width="6.08109" height="6.06996" rx="1.34409" fill="white"/>
<rect id="Rectangle 3 Copy 90" y="192.513" width="6.08109" height="6.06996" rx="1.34409" fill="white"/>
<rect id="Rectangle 3 Copy 100" y="215.93" width="6.08109" height="6.06996" rx="1.34409" fill="white"/>
<rect id="Rectangle 3 Copy 78" x="24.3245" y="145.679" width="6.08109" height="6.06996" rx="1.34409" fill="white"/>
<rect id="Rectangle 3 Copy 81" x="24.3245" y="169.096" width="6.08109" height="6.06996" rx="1.34409" fill="white"/>
<rect id="Rectangle 3 Copy 91" x="24.3245" y="192.513" width="6.08109" height="6.06996" rx="1.34409" fill="white"/>
<rect id="Rectangle 3 Copy 101" x="24.3245" y="215.93" width="6.08109" height="6.06996" rx="1.34409" fill="white"/>
<rect id="Rectangle 3 Copy 77" x="48.6489" y="145.679" width="6.08109" height="6.06996" rx="1.34409" fill="white"/>
<rect id="Rectangle 3 Copy 82" x="48.6489" y="169.096" width="6.08109" height="6.06996" rx="1.34409" fill="white"/>
<rect id="Rectangle 3 Copy 92" x="48.6489" y="192.513" width="6.08109" height="6.06996" rx="1.34409" fill="white"/>
<rect id="Rectangle 3 Copy 102" x="48.6489" y="215.93" width="6.08109" height="6.06996" rx="1.34409" fill="white"/>
<rect id="Rectangle 3 Copy 76" x="72.973" y="145.679" width="6.08109" height="6.06996" rx="1.34409" fill="white"/>
<rect id="Rectangle 3 Copy 83" x="72.973" y="169.096" width="6.08109" height="6.06996" rx="1.34409" fill="white"/>
<rect id="Rectangle 3 Copy 93" x="72.973" y="192.513" width="6.08109" height="6.06996" rx="1.34409" fill="white"/>
<rect id="Rectangle 3 Copy 103" x="72.973" y="215.93" width="6.08109" height="6.06996" rx="1.34409" fill="white"/>
<rect id="Rectangle 3 Copy 75" x="97.2974" y="145.679" width="6.08109" height="6.06996" rx="1.34409" fill="white"/>
<rect id="Rectangle 3 Copy 84" x="97.2974" y="169.096" width="6.08109" height="6.06996" rx="1.34409" fill="white"/>
<rect id="Rectangle 3 Copy 94" x="97.2974" y="192.513" width="6.08109" height="6.06996" rx="1.34409" fill="white"/>
<rect id="Rectangle 3 Copy 104" x="97.2974" y="215.93" width="6.08109" height="6.06996" rx="1.34409" fill="white"/>
<rect id="Rectangle 3 Copy 74" x="121.622" y="145.679" width="6.08109" height="6.06996" rx="1.34409" fill="white"/>
<rect id="Rectangle 3 Copy 85" x="121.622" y="169.096" width="6.08109" height="6.06996" rx="1.34409" fill="white"/>
<rect id="Rectangle 3 Copy 95" x="121.622" y="192.513" width="6.08109" height="6.06996" rx="1.34409" fill="white"/>
<rect id="Rectangle 3 Copy 105" x="121.622" y="215.93" width="6.08109" height="6.06996" rx="1.34409" fill="white"/>
<rect id="Rectangle 3 Copy 73" x="145.946" y="145.679" width="6.0811" height="6.06996" rx="1.34409" fill="white"/>
<rect id="Rectangle 3 Copy 86" x="145.946" y="169.096" width="6.0811" height="6.06996" rx="1.34409" fill="white"/>
<rect id="Rectangle 3 Copy 96" x="145.946" y="192.513" width="6.0811" height="6.06996" rx="1.34409" fill="white"/>
<rect id="Rectangle 3 Copy 106" x="145.946" y="215.93" width="6.0811" height="6.06996" rx="1.34409" fill="white"/>
<rect id="Rectangle 3 Copy 72" x="170.271" y="145.679" width="6.08109" height="6.06996" rx="1.34409" fill="white"/>
<rect id="Rectangle 3 Copy 87" x="170.271" y="169.096" width="6.08109" height="6.06996" rx="1.34409" fill="white"/>
<rect id="Rectangle 3 Copy 97" x="170.271" y="192.513" width="6.08109" height="6.06996" rx="1.34409" fill="white"/>
<rect id="Rectangle 3 Copy 107" x="170.271" y="215.93" width="6.08109" height="6.06996" rx="1.34409" fill="white"/>
<rect id="Rectangle 3 Copy 71" x="194.595" y="145.679" width="6.0811" height="6.06996" rx="1.34409" fill="white"/>
<rect id="Rectangle 3 Copy 88" x="194.595" y="169.096" width="6.0811" height="6.06996" rx="1.34409" fill="white"/>
<rect id="Rectangle 3 Copy 98" x="194.595" y="192.513" width="6.0811" height="6.06996" rx="1.34409" fill="white"/>
<rect id="Rectangle 3 Copy 108" x="194.595" y="215.93" width="6.0811" height="6.06996" rx="1.34409" fill="white"/>
<rect id="Rectangle 3 Copy 70" x="218.919" y="145.679" width="6.08109" height="6.06996" rx="1.34409" fill="white"/>
<rect id="Rectangle 3 Copy 89" x="218.919" y="169.096" width="6.08109" height="6.06996" rx="1.34409" fill="white"/>
<rect id="Rectangle 3 Copy 99" x="218.919" y="192.513" width="6.08109" height="6.06996" rx="1.34409" fill="white"/>
<rect id="Rectangle 3 Copy 109" x="218.919" y="215.93" width="6.08109" height="6.06996" rx="1.34409" fill="white"/>
</g>
</svg>
