<svg width="112" height="26" viewBox="0 0 112 26" fill="none" xmlns="http://www.w3.org/2000/svg">
<path id="Vector" d="M21.5898 11.6323H12.1704C11.9273 11.6323 11.73 11.795 11.73 11.9952V15.7883C11.73 15.9885 11.9273 16.1514 12.1702 16.1514H15.8449V20.8642C15.8449 20.8642 15.0198 21.0959 12.7387 21.0959C10.0474 21.0959 6.28775 20.2858 6.28775 13.4767C6.28775 6.66622 10.2027 5.77022 13.8779 5.77022C17.0592 5.77022 18.4299 6.23146 19.3018 6.45379C19.5759 6.52298 19.8295 6.2983 19.8295 6.09795L20.8801 2.43289C20.8801 2.3392 20.8416 2.22641 20.7119 2.14983C20.3577 1.94174 18.1972 0.945923 12.7385 0.945923C6.4505 0.945923 0 3.14943 0 13.7423C0 24.3355 7.385 25.914 13.6084 25.914C18.7611 25.914 21.8868 24.1004 21.8868 24.1004C22.0159 24.0419 22.0297 23.8936 22.0297 23.8255V11.9952C22.0297 11.7952 21.8326 11.6323 21.5898 11.6323ZM70.1085 2.27181C70.1085 2.07002 69.9143 1.90714 69.6712 1.90714H64.3674C64.3095 1.90733 64.2522 1.91691 64.1988 1.93534C64.1454 1.95377 64.0969 1.98069 64.0561 2.01455C64.0153 2.04841 63.983 2.08856 63.9611 2.1327C63.9391 2.17684 63.9279 2.22411 63.9282 2.27181L63.9295 10.714H55.6625V2.27199C55.6625 2.0702 55.4673 1.90732 55.2247 1.90732H49.9209C49.8041 1.90785 49.6924 1.94656 49.6102 2.01494C49.528 2.08332 49.4822 2.17578 49.4828 2.27199V25.1308C49.4828 25.3326 49.6797 25.4966 49.9209 25.4966H55.2245C55.4671 25.4966 55.662 25.3326 55.662 25.1308V15.3532H63.9292L63.9148 25.1306C63.9148 25.3324 64.1117 25.4964 64.3541 25.4964H69.6706C69.9134 25.4964 70.1076 25.3324 70.1081 25.1306L70.1085 2.27181ZM31.5809 5.32808C31.5809 3.75517 30.0497 2.48387 28.1608 2.48387C26.2736 2.48387 24.7413 3.75499 24.7413 5.32808C24.7413 6.89918 26.2736 8.1739 28.1608 8.1739C30.0497 8.1739 31.5809 6.89918 31.5809 5.32808ZM31.1601 20.3206V9.76897C31.1601 9.56861 30.9638 9.40484 30.7213 9.40484H25.4343C25.1917 9.40484 24.9749 9.61095 24.9749 9.81131V24.9287C24.9749 25.373 25.3109 25.505 25.746 25.505H30.5093C31.0321 25.505 31.1601 25.2937 31.1601 24.9215V20.3206ZM90.3792 9.40502H85.1161C84.8746 9.40502 84.6781 9.56879 84.6781 9.77041V20.9789C84.6781 20.9789 83.3411 21.7847 81.4433 21.7847C79.5456 21.7847 79.042 21.0753 79.042 19.5449V9.77059C79.042 9.56879 78.8458 9.40484 78.6043 9.40484H73.2627C73.0216 9.40484 72.8241 9.56879 72.8241 9.77059V20.2851C72.8241 24.8308 75.9003 25.943 80.1321 25.943C83.6036 25.943 86.4025 24.3635 86.4025 24.3635C86.4025 24.3635 86.536 25.1959 86.5961 25.2946C86.6565 25.3932 86.8136 25.4924 86.9833 25.4924L90.3816 25.4802C90.6227 25.4802 90.8202 25.316 90.8202 25.1153L90.8187 9.77041C90.8187 9.56879 90.6218 9.40502 90.3792 9.40502ZM102.506 21.7933C100.68 21.7475 99.4418 21.0652 99.4418 21.0652V13.8261C99.4418 13.8261 100.663 13.2094 102.162 13.0991C104.057 12.9593 105.884 13.4308 105.884 17.1548C105.884 21.0816 105.06 21.8567 102.506 21.7933ZM104.582 8.91405C101.592 8.91405 99.559 10.0126 99.559 10.0126V2.27181C99.5594 2.22419 99.5484 2.17698 99.5266 2.13287C99.5049 2.08875 99.4727 2.04861 99.4321 2.01474C99.3915 1.98087 99.3431 1.95393 99.2898 1.93547C99.2365 1.917 99.1794 1.90738 99.1215 1.90714H93.8026C93.7448 1.90735 93.6875 1.91696 93.6342 1.9354C93.5808 1.95385 93.5324 1.98078 93.4917 2.01464C93.451 2.04851 93.4188 2.08866 93.3969 2.13278C93.375 2.17691 93.3639 2.22415 93.3643 2.27181V25.1306C93.3643 25.3324 93.5607 25.4964 93.8033 25.4964H97.4936C97.6598 25.4964 97.7856 25.4261 97.8786 25.3023C97.9703 25.1795 98.1026 24.2483 98.1026 24.2483C98.1026 24.2483 100.277 25.9459 104.395 25.9459C109.228 25.9459 112 23.9266 112 16.8806C112 9.83455 107.573 8.91405 104.582 8.91405ZM46.4251 9.36538H42.4467L42.4406 5.03638C42.4406 4.8726 42.3382 4.79062 42.1081 4.79062H36.6866C36.4757 4.79062 36.3626 4.86701 36.3626 5.03385V9.50753C36.3626 9.50753 33.6457 10.0477 33.462 10.0913C33.3703 10.1132 33.2898 10.159 33.2325 10.2219C33.1753 10.2847 33.1443 10.3612 33.1443 10.4397V13.251C33.1443 13.4531 33.3403 13.6162 33.5829 13.6162H36.3626V20.3791C36.3626 25.4023 40.6405 25.8958 43.5273 25.8958C44.8464 25.8958 46.4242 25.5468 46.6847 25.4677C46.8423 25.42 46.9337 25.2858 46.9337 25.1398L46.9381 22.0474C46.9381 21.8457 46.7313 21.6825 46.4984 21.6825C46.2665 21.6825 45.6737 21.7602 45.0629 21.7602C43.1088 21.7602 42.4467 21.0117 42.4467 20.0431L42.4465 13.6164H46.4251C46.4831 13.6162 46.5404 13.6066 46.5939 13.5881C46.6473 13.5696 46.6958 13.5426 46.7366 13.5087C46.7773 13.4747 46.8096 13.4345 46.8314 13.3903C46.8533 13.3461 46.8643 13.2987 46.8639 13.251V9.72987C46.8639 9.52808 46.6677 9.36538 46.4251 9.36538Z" fill="#808080"/>
</svg>
