<svg width="123" height="31" viewBox="0 0 123 31" fill="none" xmlns="http://www.w3.org/2000/svg">
<g id="LinkedIn_Logo_2013 logo" clip-path="url(#clip0_1_176)">
<path id="path18" d="M120.799 26.3517C120.262 26.3568 119.75 26.5742 119.373 26.9562C118.997 27.3382 118.787 27.8538 118.789 28.3902C118.792 28.9266 119.007 29.4402 119.387 29.8186C119.767 30.197 120.282 30.4094 120.818 30.4094C121.355 30.4094 121.869 30.197 122.249 29.8186C122.63 29.4402 122.844 28.9266 122.847 28.3902C122.85 27.8538 122.64 27.3382 122.263 26.9562C121.887 26.5742 121.374 26.3568 120.838 26.3517H120.799ZM120.799 30.1771C120.447 30.1829 120.101 30.0843 119.805 29.8938C119.51 29.7032 119.277 29.4291 119.137 29.1064C118.997 28.7836 118.956 28.4265 119.019 28.0803C119.081 27.7341 119.246 27.4143 119.49 27.1614C119.735 26.9085 120.049 26.7338 120.393 26.6594C120.737 26.585 121.095 26.6143 121.422 26.7435C121.75 26.8727 122.031 27.0961 122.232 27.3854C122.432 27.6746 122.542 28.0168 122.548 28.3686V28.3985C122.558 28.86 122.384 29.3065 122.065 29.6399C121.745 29.9733 121.307 30.1662 120.845 30.1762H120.799L120.799 30.1771ZM113.01 25.7974H108.602V18.8932C108.602 17.2469 108.572 15.1275 106.309 15.1275C104.013 15.1275 103.661 16.9213 103.661 18.7734V25.7969H99.2527V11.5992H103.485V13.5395H103.544C103.968 12.8153 104.58 12.2195 105.315 11.8156C106.051 11.4118 106.882 11.2149 107.72 11.246C112.188 11.246 113.012 14.1851 113.012 18.0087L113.01 25.7974ZM94.2782 9.65846C93.7722 9.65856 93.2776 9.5086 92.8568 9.22755C92.436 8.94651 92.108 8.547 91.9143 8.07955C91.7206 7.61209 91.6698 7.0977 91.7685 6.6014C91.8671 6.1051 92.1107 5.64919 92.4684 5.29133C92.8261 4.93347 93.282 4.68972 93.7782 4.59091C94.2745 4.49211 94.7889 4.54268 95.2564 4.73624C95.7239 4.92979 96.1236 5.25764 96.4048 5.67831C96.686 6.09899 96.8361 6.5936 96.8362 7.09961C96.8362 7.43558 96.7701 7.76828 96.6416 8.0787C96.5131 8.38912 96.3247 8.67119 96.0872 8.9088C95.8496 9.14641 95.5676 9.33492 95.2573 9.46354C94.9469 9.59217 94.6142 9.6584 94.2782 9.65846ZM96.4826 25.7974H92.0693V11.5992H96.4826V25.7974ZM115.208 0.447583H89.854C89.2785 0.441089 88.724 0.663329 88.3123 1.06547C87.9006 1.46761 87.6654 2.01675 87.6584 2.59221V28.0518C87.6651 28.6275 87.9002 29.177 88.3119 29.5796C88.7236 29.9821 89.2782 30.2048 89.854 30.1987H115.208C115.785 30.2059 116.341 29.9839 116.755 29.5813C117.168 29.1788 117.405 28.6286 117.413 28.0518V2.59037C117.404 2.01377 117.168 1.46401 116.754 1.06188C116.341 0.659747 115.785 0.438141 115.208 0.445746V0.447583ZM75.659 15.026C73.4547 15.026 72.1321 16.4979 72.1321 18.6425C72.1321 20.7871 73.4542 22.2603 75.659 22.2603C77.8638 22.2603 79.1891 20.7908 79.1891 18.6425C79.1891 16.4942 77.8661 15.026 75.659 15.026ZM83.2479 25.7891H79.1891V23.9062H79.129C78.6198 24.5911 77.9594 25.1492 77.1991 25.5369C76.4389 25.9247 75.5994 26.1317 74.746 26.1418C70.5101 26.1418 67.7197 23.0847 67.7197 18.7614C67.7197 14.7909 70.1891 11.145 74.2482 11.145C76.0728 11.145 77.777 11.6442 78.7768 13.0279H78.8346V4.84384H83.2474L83.2479 25.7891ZM62.0592 17.0416C62.0676 16.6839 62.0034 16.3283 61.8703 15.9961C61.7373 15.664 61.5382 15.3624 61.2851 15.1095C61.032 14.8566 60.7303 14.6577 60.3981 14.5249C60.0659 14.392 59.7102 14.328 59.3525 14.3367C58.5822 14.2888 57.8239 14.5455 57.2411 15.0515C56.6583 15.5574 56.2977 16.2722 56.237 17.0416H62.0592ZM65.7937 23.3331C65.0611 24.2215 64.1401 24.9358 63.0974 25.4244C62.0547 25.913 60.9164 26.1635 59.7649 26.1579C55.3562 26.1579 51.8265 23.2151 51.8265 18.6581C51.8265 14.1011 55.3558 11.1597 59.7649 11.1597C63.8856 11.1597 66.4697 14.0988 66.4697 18.6581V20.0404H56.237C56.3644 20.8243 56.7709 21.5358 57.3814 22.0438C57.992 22.5517 58.7656 22.8219 59.5596 22.8045C60.1871 22.8006 60.8037 22.6399 61.3532 22.3368C61.9027 22.0338 62.3677 21.5982 62.7058 21.0695L65.7937 23.3331ZM21.9671 11.5955H26.2008V13.5358H26.2609C26.6838 12.8113 27.2955 12.2153 28.0307 11.8113C28.7659 11.4074 29.5971 11.2107 30.4354 11.2424C34.906 11.2424 35.729 14.1838 35.729 18.0051V25.7909H31.3203V18.8882C31.3203 17.2404 31.29 15.1224 29.0241 15.1224C26.7325 15.1224 26.3789 16.9167 26.3789 18.7683V25.7891H21.9703L21.9671 11.5955ZM37.9645 4.84522H42.3732V17.3663L47.3697 11.5877H52.7749L46.9885 18.1607L52.6532 25.7978H47.112L42.432 18.7798H42.3741V25.7969H37.9654L37.9645 4.84522ZM15.1139 11.5941H19.5226V25.7919H15.1139V11.5941ZM17.3182 4.5357C17.824 4.53579 18.3184 4.68586 18.739 4.96693C19.1595 5.24801 19.4872 5.64746 19.6807 6.11479C19.8742 6.58212 19.9248 7.09633 19.826 7.5924C19.7273 8.08847 19.4837 8.54413 19.126 8.90175C18.7683 9.25937 18.3126 9.50291 17.8165 9.60155C17.3204 9.70019 16.8062 9.64952 16.3389 9.45594C15.8717 9.26235 15.4723 8.93455 15.1913 8.51399C14.9103 8.09342 14.7603 7.59898 14.7603 7.09318C14.7603 6.75728 14.8264 6.42468 14.955 6.11436C15.0836 5.80405 15.272 5.52209 15.5095 5.2846C15.747 5.04711 16.029 4.85874 16.3394 4.73024C16.6497 4.60174 16.9823 4.53563 17.3182 4.5357ZM0 4.84843H4.58914V21.5646H13.085V25.7997H0V4.84843ZM121.121 28.5092C121.196 28.5099 121.271 28.4951 121.34 28.4658C121.41 28.4364 121.473 28.393 121.525 28.3384C121.577 28.2837 121.617 28.219 121.643 28.1481C121.669 28.0772 121.681 28.0018 121.676 27.9264C121.676 27.5131 121.427 27.3156 120.915 27.3156H120.089V29.4795H120.4V28.5362H120.782L120.79 28.5477L121.383 29.4795H121.716L121.078 28.5151L121.121 28.5092ZM120.761 28.2924H120.4V27.5608H120.857C121.093 27.5608 121.363 27.5994 121.363 27.9085C121.363 28.2639 121.09 28.2924 120.759 28.2924" fill="white" fill-opacity="0.5"/>
</g>
<defs>
<clipPath id="clip0_1_176">
<rect width="122.847" height="30" fill="white" transform="translate(0 0.445923)"/>
</clipPath>
</defs>
</svg>
